<?xml version="1.0" encoding="utf-8"?>
<!-- Generator: Adobe Illustrator 15.1.0, SVG Export Plug-In . SVG Version: 6.00 Build 0)  -->
<!DOCTYPE svg PUBLIC "-//W3C//DTD SVG 1.1//EN" "http://www.w3.org/Graphics/SVG/1.1/DTD/svg11.dtd">
<svg version="1.1" id="Ebene_1" xmlns="http://www.w3.org/2000/svg" xmlns:xlink="http://www.w3.org/1999/xlink" x="0px" y="0px"
	 width="35px" height="35px" viewBox="0 0 35 35" enable-background="new 0 0 35 35" xml:space="preserve">
<path fill="#1D1D1B" d="M32.545,18.342c0,8.422-6.828,15.25-15.25,15.25s-15.25-6.828-15.25-15.25c0-8.422,6.828-15.25,15.25-15.25
	S32.545,9.919,32.545,18.342"/>
<path fill="#FDFDFD" d="M22.242,17.221c0,0-4.693-5.073-4.788-5.173c-0.096-0.101-0.094-0.102-0.184-0.008
	c-0.09,0.094-4.798,5.18-4.798,5.18l-0.001,10.726h9.771V17.221z"/>
<path fill="#FDFDFD" d="M25.817,27.945h-0.806V16.07l-7.655-8.038l-7.66,8.038v11.875H8.891V15.91c0-0.104,0.04-0.204,0.11-0.278
	l8.063-8.461c0.077-0.08,0.182-0.125,0.292-0.125s0.216,0.045,0.292,0.125l8.058,8.461c0.071,0.074,0.111,0.174,0.111,0.278V27.945z
	"/>
</svg>
