<?xml version="1.0" encoding="utf-8"?>
<!-- Generator: Adobe Illustrator 15.1.0, SVG Export Plug-In . SVG Version: 6.00 Build 0)  -->
<!DOCTYPE svg PUBLIC "-//W3C//DTD SVG 1.1//EN" "http://www.w3.org/Graphics/SVG/1.1/DTD/svg11.dtd">
<svg version="1.1" id="Ebene_1" xmlns="http://www.w3.org/2000/svg" xmlns:xlink="http://www.w3.org/1999/xlink" x="0px" y="0px"
	 width="35px" height="35px" viewBox="0 0 35 35" enable-background="new 0 0 35 35" xml:space="preserve">
<path fill="#1D1D1B" d="M33.164,17.744c0,8.422-6.828,15.25-15.25,15.25s-15.25-6.828-15.25-15.25s6.828-15.25,15.25-15.25
	S33.164,9.322,33.164,17.744"/>
<rect x="12.758" y="19.91" fill="#FFFFFF" width="9.963" height="2.513"/>
<path fill="#FFFFFF" d="M21.678,28.101c0,0,0.31-0.54,0.303-1.019c-0.007-0.513-0.173-0.779-0.195-0.715
	c-0.23,0.693-0.584,0.975-1.104,1.473c-0.222,0.213-0.976,0.261-0.976,0.261c0.586-0.931,0.369-1.949,0.369-1.949
	s-0.201,0.854-0.477,1.256c-0.477,0.693-1.515,0.693-1.515,0.693c0.779-0.563,0.887-1.688,0.887-1.688s-0.325,0.887-0.65,1.19
	c-0.268,0.251-0.952,0.498-1.017,0.498c-0.037,0,0.491-0.623,0.628-0.953c0.26-0.628,0.043-1.083,0.043-1.083
	s-0.238,0.845-0.866,1.343c-0.605,0.479-1.835,0.679-1.733,0.585c0.996-0.932,0.52-2.123,0.52-2.123s-0.245,1.283-0.694,1.711
	c-0.638,0.61-1.277,0.521-1.277,0.521c0.519-0.931,0.606-1.798,0.606-1.798s-0.228,0.576-0.671,1.127
	c-0.541,0.671-1.539,0.671-1.56,0.671c-0.043,0,0.43-0.354,0.737-1.3c0.498-1.537-0.278-4.141-0.278-4.141h9.963
	c0,0,0.342,1.521,0.3,2.516C22.912,27.711,21.678,28.101,21.678,28.101"/>
<path fill="#FFFFFF" d="M19.382,15.582v-7.32c0-0.412-0.888-1.818-1.657-1.818s-1.592,1.43-1.592,1.818v7.32l-3.379,2.857v1.216
	h9.963v-1.171L19.382,15.582z M17.741,8.942c-0.401,0-0.726-0.325-0.726-0.726c0-0.4,0.325-0.725,0.726-0.725
	s0.726,0.325,0.726,0.725C18.467,8.618,18.142,8.942,17.741,8.942"/>
</svg>
