<?xml version="1.0" encoding="utf-8"?>
<!-- Generator: Adobe Illustrator 15.1.0, SVG Export Plug-In . SVG Version: 6.00 Build 0)  -->
<!DOCTYPE svg PUBLIC "-//W3C//DTD SVG 1.1//EN" "http://www.w3.org/Graphics/SVG/1.1/DTD/svg11.dtd">
<svg version="1.1" id="Ebene_1" xmlns="http://www.w3.org/2000/svg" xmlns:xlink="http://www.w3.org/1999/xlink" x="0px" y="0px"
	 width="35px" height="35px" viewBox="0 0 35 35" enable-background="new 0 0 35 35" xml:space="preserve">
<path fill="#1D1D1B" d="M32.664,18.317c0,8.422-6.828,15.25-15.25,15.25c-8.422,0-15.25-6.828-15.25-15.25s6.828-15.25,15.25-15.25
	C25.836,3.067,32.664,9.896,32.664,18.317"/>
<path fill="#FFFFFF" d="M17.475,7.015c-5.282,0-7.723,2.922-7.723,6.515c0,0.627,0.07,0.853,0.099,0.945l0.035,0.161h1.12v-0.211
	l0.001,12.42c0,0.169,0.139,0.308,0.309,0.308h12.409c0.17,0,0.309-0.139,0.309-0.308L23.99,14.63h1.09l0.033-0.163
	c0.065-0.308,0.099-0.624,0.099-0.937C25.212,9.937,22.757,7.015,17.475,7.015 M13.03,24.589c-0.215,0-0.313-0.082-0.462-0.148
	c-0.148-0.065-0.312-0.362-0.411-0.575c-0.099-0.215-0.165-0.939-0.165-1.17s-0.038-0.812,0.017-1.119
	c0.082-0.461,0.23-0.988,0.296-1.187c0.066-0.197,0.379-0.69,0.626-0.938c0.177-0.178,0.43-0.336,0.626-0.431l-0.502,3.726
	c-0.039,0.062-0.076,0.121-0.108,0.18c-0.214,0.395-0.263,0.791-0.263,0.939c0,0.147,0.131,0.213,0.313,0.262
	c0.181,0.051,0.477-0.131,0.477-0.131l-0.016,0.264l0.164,0.197C13.622,24.457,13.244,24.589,13.03,24.589 M13.606,22.021
	c0,0-0.114,0.132-0.254,0.312l0.62-3.438c0.14-0.025,0.308-0.051,0.449-0.068l-0.302,4.76L13.606,22.021z M14.643,25.182
	l-0.227-0.691l0.416-5.683c0.185-0.002,0.456-0.005,0.718-0.006l-0.49,6.38H14.643z M16.474,23.552h-0.398v1.63h-0.604l0.473-6.377
	c0.054,0.001,0.105,0.003,0.147,0.005c0.097,0.004,0.242,0.019,0.409,0.04L16.474,23.552z M17.212,23.552h-0.409l0.027-4.655
	c0.134,0.021,0.269,0.043,0.398,0.066L17.212,23.552z M18.201,25.148h-0.479l-0.184-0.576l0.165-5.513
	c0.069,0.017,0.128,0.032,0.168,0.046c0.119,0.042,0.325,0.116,0.542,0.209L18.201,25.148z M21.016,22.893l-0.033,0.1h-0.065
	l-0.066-0.133l-0.032,0.149l-0.1,0.032l-0.098-0.131l-0.018,0.213h-0.082l-0.065-0.197l-0.05,0.181l-0.099,0.033l-0.05-0.147
	l-0.049,0.197l-0.082-0.033c0,0,0,0.115-0.051,0.133c-0.049,0.016-0.213,0-0.213,0l-0.166,0.098l-0.082-0.264l-0.065,0.264
	l-0.099-0.066v0.182l-0.082,0.017l-0.115-0.247l-0.133,1.877h-0.543l0.259-5.628c0.144,0.081,0.274,0.168,0.368,0.261
	c0.312,0.313,0.345,0.608,0.492,1.103c0.149,0.493,0.379,1.054,0.379,1.054l0.676-0.296c0,0,0.115,0.082,0.148,0.181
	c0.032,0.1,0.065,0.362,0.065,0.362l0.28,0.708H21.016z M22.503,20.068l0.341-0.748c0,0,0.271,0.646,0.307,0.852
	c0.033,0.203,0.033,0.51-0.341,0.476C22.435,20.613,22.503,20.068,22.503,20.068 M22.049,22.578c-0.374-0.035-0.307-0.58-0.307-0.58
	l0.341-0.748c0,0,0.272,0.646,0.307,0.851S22.424,22.611,22.049,22.578 M24.744,14.221h-0.668l0.295-0.562
	c0-0.17-0.139-0.309-0.307-0.309h-0.937c0.009,0.527,0,4.551-0.068,4.824c-0.067,0.271-0.067,0.578-0.307,0.578
	c-0.238,0-0.204-0.375-0.238-0.545s-0.034-0.203-0.034-0.477c0-0.272-0.033-0.374-0.375-0.34c-0.34,0.034-0.203,0.306-0.203,0.476
	c0,0.17,0.033,0.75,0.033,0.954c0,0.204-0.203,0.478-0.408,0.478s-0.375-0.409-0.375-0.716v-2.077c0-0.613,0.035-2.281-0.375-2.247
	c-0.408,0.034-0.408,0.409-0.408,0.409s0.035,2.111,0.035,2.383c0,0.273-0.137,0.647-0.443,0.613s-0.34-0.477-0.34-0.681v-1.873
	c0-0.443-0.273-0.034-0.273,0.307c0,0.34,0,0.885-0.306,0.851c-0.308-0.034-0.273-0.885-0.273-0.885V13.35h-7.778
	c-0.169,0-0.309,0.139-0.309,0.309l0.262,0.568h-0.735c-0.023-0.117-0.049-0.326-0.049-0.697c0-3.367,2.258-6.107,7.315-6.107
	s7.329,2.74,7.329,6.107C24.804,13.76,24.783,13.992,24.744,14.221"/>
<path fill="#FFFFFF" d="M19.353,21.032l-0.017,1.136l0.428-0.148c0,0-0.115-0.51-0.18-0.707
	C19.518,21.114,19.353,21.032,19.353,21.032"/>
<path fill="#FFFFFF" d="M24.189,13.236H10.865c-0.1,0-0.183-0.082-0.183-0.183v-0.071c0-0.101,0.083-0.184,0.183-0.184h13.324
	c0.101,0,0.183,0.083,0.183,0.184v0.071C24.372,13.154,24.29,13.236,24.189,13.236"/>
</svg>
