<?xml version="1.0" encoding="utf-8"?>
<!-- Generator: Adobe Illustrator 15.1.0, SVG Export Plug-In . SVG Version: 6.00 Build 0)  -->
<!DOCTYPE svg PUBLIC "-//W3C//DTD SVG 1.1//EN" "http://www.w3.org/Graphics/SVG/1.1/DTD/svg11.dtd">
<svg version="1.1" id="Ebene_1" xmlns="http://www.w3.org/2000/svg" xmlns:xlink="http://www.w3.org/1999/xlink" x="0px" y="0px"
	 width="35px" height="35px" viewBox="0 0 35 35" enable-background="new 0 0 35 35" xml:space="preserve">
<path fill="#1D1D1B" d="M32.664,18.327c0,8.423-6.828,15.25-15.25,15.25s-15.25-6.827-15.25-15.25c0-8.422,6.828-15.25,15.25-15.25
	S32.664,9.905,32.664,18.327"/>
<path fill="#FDFDFD" d="M23.521,20.951c-0.354-0.217-0.83-0.509-1.381-0.846c-1.476-0.904-3.438-2.107-4.765-2.923
	c-0.118-0.064-0.172-0.068-0.334,0.032c-0.094,0.059-1.548,0.953-3.068,1.889v-1.507h-1.156v2.219
	c-1.296,0.797-2.391,1.471-2.391,1.471v8l8.056-0.026l0.016-6.039h3.592v6.039h1.977v-7.974
	C24.066,21.286,23.857,21.157,23.521,20.951 M16.878,26.815h-4.974v-3.595h4.974V26.815z"/>
<path fill="#FDFDFD" d="M15.161,9.454c1.793-0.226,2.594,0.102,4.372,0.493c0.271,0.06,1.16-0.026,1.439,0
	c0.83,0.078,1.602-0.401,2.291-0.903c0.647-0.47,0.879-0.516,1.567-0.966c1.583,0.75,2.067,1.711,2.886,2.768
	c-0.925,0.681-1.816,1.337-2.707,1.993c-0.718,0.528-1.389,0.844-2.104,1.377c-0.568,0.423-1.952,0.661-2.664,0.565
	c-0.959-0.128-1.206-0.312-2.17-0.353c-1.066-0.045-2.137,0.02-3.207,0.044c-0.419,0.009-0.751,0.054-0.95-0.333
	c-0.042-0.301-0.065-0.23,0.076-0.702c0.112-0.372,0.57-0.427,0.92-0.448c0.914-0.055,2.282-0.062,3.23-0.118
	c-0.599-0.524-1.725-1.306-2.429-1.438c-0.755-0.142-0.921-0.062-1.58,0.011c-0.142,0.015-1.16,0.444-1.25,0.555
	c-0.466,0.574-1.761,1.804-1.799,1.819c-0.474,0.187-0.709-0.097-0.913-0.451c-0.016-0.074-0.033-0.149-0.049-0.224
	c0.058-0.177,0.074-0.386,0.181-0.525C11.175,11.479,12.868,9.854,15.161,9.454"/>
</svg>
