<?xml version="1.0" encoding="utf-8"?>
<!-- Generator: Adobe Illustrator 15.1.0, SVG Export Plug-In . SVG Version: 6.00 Build 0)  -->
<!DOCTYPE svg PUBLIC "-//W3C//DTD SVG 1.1//EN" "http://www.w3.org/Graphics/SVG/1.1/DTD/svg11.dtd">
<svg version="1.1" id="Ebene_1" xmlns="http://www.w3.org/2000/svg" xmlns:xlink="http://www.w3.org/1999/xlink" x="0px" y="0px"
	 width="35px" height="35px" viewBox="0 0 35 35" enable-background="new 0 0 35 35" xml:space="preserve">
<path fill="#1D1D1B" d="M32.664,18.067c0,8.422-6.828,15.25-15.25,15.25c-8.422,0-15.25-6.828-15.25-15.25s6.828-15.25,15.25-15.25
	C25.836,2.817,32.664,9.646,32.664,18.067"/>
<polygon fill="#FDFDFD" points="7.943,13.274 7.951,14.116 12.593,12.902 7.654,12.902 "/>
<polygon fill="#FDFDFD" points="26.908,14.107 26.908,13.274 27.186,12.906 22.314,12.906 "/>
<rect x="13.078" y="12.58" fill="#FDFDFD" width="8.682" height="1.542"/>
<polygon fill="#FDFDFD" points="27.15,16.599 27.316,16.599 27.316,14.539 7.53,14.539 7.53,16.599 7.703,16.599 7.703,25.313 
	7.447,25.313 7.447,25.537 9.456,25.537 9.456,25.313 9.191,25.313 9.208,16.516 11.019,16.516 11.002,25.313 10.746,25.313 
	10.746,25.504 12.755,25.504 12.755,25.313 12.491,25.313 12.507,16.516 14.393,16.516 14.376,16.995 14.376,25.33 14.07,25.33 
	14.07,25.524 16.079,25.524 16.079,25.313 15.765,25.313 15.765,16.573 19.213,16.573 19.213,25.313 18.916,25.313 18.916,25.504 
	20.975,25.504 20.975,25.313 20.652,25.313 20.652,16.573 22.413,16.573 22.413,25.33 22.132,25.33 22.132,25.528 24.131,25.528 
	24.131,25.313 23.852,25.313 23.852,16.549 25.713,16.549 25.713,25.33 25.441,25.313 25.441,25.554 27.439,25.554 27.439,25.313 
	27.15,25.313 "/>
<path fill="#FDFDFD" d="M12.789,12.902l-4.825,1.313l-0.013,0.052H7.53v0.174h19.787v-0.183h-0.373l-0.016-0.043l-4.845-1.309h0.019
	h-0.019v-0.649h-1.12v-0.709h-3.36v-1.465c0.268-0.082,0.463-0.331,0.463-0.625c0-0.311-0.216-0.571-0.507-0.637
	C17.557,8.82,17.554,8.82,17.551,8.82V8.392c0,0,0.241,0.104,0.378-0.017s0.121-0.309,0.121-0.309s0.138-0.097,0.24-0.259
	c0.161-0.252,0.206-0.756,0.206-0.756s-0.24,0.292-0.36,0.378s-0.447,0.275-0.447,0.275s0.166,0.143,0.137,0.235
	c-0.028,0.091-0.229,0.166-0.298,0.131c-0.068-0.034,0.012-0.35,0.018-0.441c0.005-0.091-0.058-0.183-0.126-0.183
	c-0.069,0-0.144,0.115-0.144,0.178s0.086,0.423,0,0.441c-0.085,0.017-0.257-0.035-0.292-0.121c-0.034-0.086,0.172-0.246,0.172-0.246
	s-0.235-0.074-0.372-0.144c-0.138-0.068-0.435-0.51-0.435-0.51s-0.046,0.493,0.2,0.762c0.124,0.136,0.235,0.264,0.235,0.264
	s0.017,0.218,0.103,0.304c0.086,0.086,0.418,0.017,0.418,0.017L17.3,8.815c-0.306,0.054-0.539,0.32-0.539,0.643
	c0,0.294,0.195,0.543,0.464,0.625v1.465h-3.357v0.709h-1.079V12.902z M17.596,8.994c0.073-0.049,0.342,0.241,0.33,0.302
	c-0.012,0.061-0.376,0.16-0.437,0.099C17.428,9.335,17.523,9.043,17.596,8.994 M17.479,9.531c0.047-0.041,0.394,0.106,0.405,0.191
	c0.01,0.086-0.246,0.256-0.333,0.249C17.463,9.965,17.432,9.571,17.479,9.531 M17.248,8.972c0.06,0.013,0.158,0.376,0.097,0.438
	C17.284,9.47,16.992,9.373,16.944,9.3C16.923,9.269,16.975,8.917,17.248,8.972 M16.918,9.675c0.016-0.084,0.372-0.209,0.416-0.166
	c0.044,0.044-0.012,0.436-0.1,0.437C17.147,9.946,16.902,9.76,16.918,9.675 M21.859,14.221h-8.88v-1.74h8.88V14.221z"/>
</svg>
