<?xml version="1.0" encoding="utf-8"?>
<!-- Generator: Adobe Illustrator 15.1.0, SVG Export Plug-In . SVG Version: 6.00 Build 0)  -->
<!DOCTYPE svg PUBLIC "-//W3C//DTD SVG 1.1//EN" "http://www.w3.org/Graphics/SVG/1.1/DTD/svg11.dtd">
<svg version="1.1" id="Ebene_1" xmlns="http://www.w3.org/2000/svg" xmlns:xlink="http://www.w3.org/1999/xlink" x="0px" y="0px"
	 width="35px" height="35px" viewBox="0 0 35 35" enable-background="new 0 0 35 35" xml:space="preserve">
<path fill="#1D1D1B" d="M32.837,18.161c0,8.422-6.828,15.25-15.25,15.25s-15.25-6.828-15.25-15.25c0-8.422,6.828-15.25,15.25-15.25
	S32.837,9.739,32.837,18.161"/>
<path fill="#FDFDFD" d="M19.193,27.396c-2.314-0.492-2.975-2.872-2.005-4.72c0.104-0.198,0.238-0.426,0.421-0.526
	c0.194-0.106,0.548-0.185,0.679-0.08c0.168,0.131,0.261,0.464,0.241,0.698c-0.02,0.236-0.577,0.81-0.711,1.029
	c-0.795,1.308,0.401,2.891,1.947,3.002c0.992,0.072,1.948-0.183,2.704-1.421c0.14-0.302,0.633-1.638,1.101-2.199
	c1.023-1.229,1.929-2.118,2.865-3.414c0.777-1.079,1.134-2.926,1.099-4.285c-0.053-2.133-1.054-3.919-2.887-4.423
	c-3.115-0.857-6.329,0.318-6.623,3.804c-0.206,2.452,0.651,2.83,0.504,2.91c-0.257,0.141-0.745-0.617-0.779-0.825
	c-0.12-0.731-0.177-1.117-0.11-1.845c0.204-2.219,1.298-3.866,3.387-4.764c2.912-1.251,7.213,0.074,7.793,3.676
	c0.011,0.071,0.526,3.644-1.601,6.141c-0.946,1.111-2.18,2.222-3.189,3.277c-0.513,0.535-1.008,3.574-3.3,3.965
	C20.178,27.533,19.248,27.408,19.193,27.396"/>
<path fill="#FDFDFD" d="M25.839,15.296c0.009,1.256-0.219,1.558-0.665,2.292c-0.109,0.18-0.407,0.681-0.572,0.802
	c-0.139,0.101-0.167,0.065-0.344,0.113c-0.022-0.178-0.143-0.351-0.092-0.504c0.096-0.284,0.168-0.396,0.294-0.673
	c0.492-1.073,0.824-2.265,0.119-3.223c-0.507-0.685-1.841-1.112-2.659-0.825c-0.757,0.266-1.353,0.665-1.535,1.88
	c-0.049,0.323-0.069,1.055,0.412,1.97c0.512,0.975,0.845,1.613,1.261,1.948c0.71,0.573,1.008,0.891,1.008,1.879
	c0,0.871-0.152,0.828-0.458,1.468c-0.1,0.209-0.621,0.695-0.824,0.824c-0.509,0.32-1.611,1.08-2.108,0.597
	c-0.478-0.464-0.463-1.067,0-1.696c0.279-0.381,1.031-0.069,1.558-0.871c0.452-0.688,0.055-2.56-0.55-3.116
	c-1.307-1.204-1.457-3.115-0.819-4.213c0.711-1.226,2.146-1.789,3.465-1.406C24.852,12.983,25.841,14.134,25.839,15.296"/>
<path fill="#FDFDFD" d="M7.857,19.31c-0.014,0-0.026,0-0.039-0.001l0.021-0.397c0.004,0,0.008,0,0.013,0
	c0.397,0,3.639-0.729,4.351-3.605c0.364-1.469-0.079-2.624-0.515-3.334c-0.578-0.942-1.362-1.473-1.635-1.536l0.09-0.388
	c0.402,0.093,1.253,0.686,1.885,1.716c0.477,0.775,0.959,2.035,0.563,3.638C11.853,18.381,8.603,19.31,7.857,19.31"/>
<path fill="#FDFDFD" d="M10.278,21.27c-0.015,0-0.029,0-0.041-0.001l0.034-0.531c0.342,0.024,3.734-0.897,4.482-4.639
	c0.764-3.815-1.74-6.166-2.208-6.298l0.146-0.511c0.467,0.133,1.296,0.904,1.913,2.069c0.543,1.025,1.1,2.697,0.671,4.844
	C14.503,20.065,11.068,21.27,10.278,21.27"/>
<path fill="#FDFDFD" d="M6.953,17.549c-0.011,0-0.021,0-0.028-0.001l0.016-0.331c0.241,0.011,2.651-0.472,3.176-2.451
	c0.252-0.953-0.036-1.708-0.321-2.175c-0.423-0.689-1.023-1.078-1.236-1.124l0.07-0.325c0.31,0.067,0.984,0.519,1.449,1.276
	c0.318,0.521,0.641,1.367,0.358,2.433C9.893,16.907,7.501,17.549,6.953,17.549"/>
<path fill="#FDFDFD" d="M6.197,16.486c-0.008,0-0.016,0-0.022,0l0.009-0.2c0.002,0.001,0.006,0.001,0.009,0.001
	c0.23,0,2.114-0.364,2.526-1.799c0.152-0.531,0.082-1.042-0.209-1.519c-0.32-0.527-0.841-0.863-1.041-0.903l0.039-0.195
	c0.271,0.054,0.828,0.429,1.172,0.994c0.316,0.519,0.396,1.1,0.23,1.678C8.485,16.024,6.623,16.486,6.197,16.486"/>
</svg>
