<?xml version="1.0" encoding="utf-8"?>
<!-- Generator: Adobe Illustrator 15.1.0, SVG Export Plug-In . SVG Version: 6.00 Build 0)  -->
<!DOCTYPE svg PUBLIC "-//W3C//DTD SVG 1.1//EN" "http://www.w3.org/Graphics/SVG/1.1/DTD/svg11.dtd">
<svg version="1.1" id="Ebene_1" xmlns="http://www.w3.org/2000/svg" xmlns:xlink="http://www.w3.org/1999/xlink" x="0px" y="0px"
	 width="35px" height="35px" viewBox="0 0 35 35" enable-background="new 0 0 35 35" xml:space="preserve">
<path fill="#1D1D1B" d="M33.021,18.317c0,8.422-6.828,15.25-15.25,15.25s-15.25-6.828-15.25-15.25s6.828-15.25,15.25-15.25
	S33.021,9.896,33.021,18.317"/>
<path fill="#FDFDFD" d="M27.863,12.135H9.755c0,0-1.315,1.357-1.315,3.901c0,2.544,1.315,4.156,1.315,4.156v0.034l-0.002,0.002
	h17.473l-0.128,0.347H9.516L7.124,24.06h19.337c0.029-0.05,2.121-3.953,2.121-7.86C28.582,13.461,27.893,12.188,27.863,12.135
	 M27.098,16.206c0-1.508,0.196-2.559,0.378-3.221c0.187,0.581,0.428,1.636,0.428,3.215c0,1.588-0.245,2.619-0.43,3.171
	C27.293,18.731,27.098,17.707,27.098,16.206"/>
</svg>
