<?xml version="1.0" encoding="utf-8"?>
<!-- Generator: Adobe Illustrator 15.1.0, SVG Export Plug-In . SVG Version: 6.00 Build 0)  -->
<!DOCTYPE svg PUBLIC "-//W3C//DTD SVG 1.1//EN" "http://www.w3.org/Graphics/SVG/1.1/DTD/svg11.dtd">
<svg version="1.1" id="Ebene_1" xmlns="http://www.w3.org/2000/svg" xmlns:xlink="http://www.w3.org/1999/xlink" x="0px" y="0px"
	 width="35px" height="35px" viewBox="0 0 35 35" enable-background="new 0 0 35 35" xml:space="preserve">
<path fill="#1D1D1B" d="M32.92,18.317c0,8.422-6.828,15.25-15.25,15.25S2.42,26.739,2.42,18.317s6.828-15.25,15.25-15.25
	S32.92,9.896,32.92,18.317"/>
<path fill="#FFFFFF" d="M21.052,21.771c-0.342,0-0.618-0.048-0.618-0.414v-2.577c0-0.312-0.004-0.648,0.641-0.648
	c0.644,0,0.596,0.603,0.596,0.603v2.623C21.67,21.723,21.394,21.771,21.052,21.771"/>
<path fill="#FFFFFF" d="M21.676,29.576H20.44c-0.321,0-0.584-0.264-0.584-0.584v-6.389c0-0.321,0.263-0.584,0.584-0.584h1.235
	c0.321,0,0.584,0.263,0.584,0.584v6.389C22.26,29.313,21.997,29.576,21.676,29.576"/>
<path fill="#FFFFFF" d="M21.064,17.938c3.059,0,5.12-10.329,4.819-10.329h-9.577C16.081,7.609,18.005,17.938,21.064,17.938"/>
<polygon fill="#FFFFFF" points="6.383,12.3 6.383,15.009 13.472,14.333 6.744,19.118 7.736,21.42 12.433,21.33 11.891,22.053 
	10.988,23.271 11.575,24.942 16.857,22.233 15.818,18.938 12.704,19.479 16.226,16.409 14.916,10.629 "/>
</svg>
