<?xml version="1.0" encoding="utf-8"?>
<!-- Generator: Adobe Illustrator 15.1.0, SVG Export Plug-In . SVG Version: 6.00 Build 0)  -->
<!DOCTYPE svg PUBLIC "-//W3C//DTD SVG 1.1//EN" "http://www.w3.org/Graphics/SVG/1.1/DTD/svg11.dtd">
<svg version="1.1" id="Ebene_1" xmlns="http://www.w3.org/2000/svg" xmlns:xlink="http://www.w3.org/1999/xlink" x="0px" y="0px"
	 width="35px" height="35px" viewBox="0 0 35 35" enable-background="new 0 0 35 35" xml:space="preserve">
<path fill="#1D1D1B" d="M32.837,17.078c0,8.422-6.828,15.25-15.25,15.25S2.337,25.5,2.337,17.078s6.828-15.25,15.25-15.25
	S32.837,8.655,32.837,17.078"/>
<path fill="#FFFFFF" d="M17.587,20.79c-0.314,0-0.569-0.044-0.569-0.382v-2.371c0-0.287-0.004-0.597,0.589-0.597
	c0.594,0,0.55,0.554,0.55,0.554v2.414C18.156,20.746,17.901,20.79,17.587,20.79"/>
<path fill="#FFFFFF" d="M18.162,27.975h-1.139c-0.295,0-0.537-0.242-0.537-0.538v-5.88c0-0.296,0.242-0.538,0.537-0.538h1.139
	c0.296,0,0.537,0.242,0.537,0.538v5.88C18.699,27.732,18.458,27.975,18.162,27.975"/>
<path fill="#FFFFFF" d="M17.62,6.175c-1.19,0-4.06,9.062-4.69,10.748c-0.081,0.217-0.021,0.339,0.253,0.339H22
	c0.207,0,0.368-0.123,0.285-0.341C21.646,15.231,18.81,6.175,17.62,6.175"/>
</svg>
