<?xml version="1.0" encoding="utf-8"?>
<!-- Generator: Adobe Illustrator 15.1.0, SVG Export Plug-In . SVG Version: 6.00 Build 0)  -->
<!DOCTYPE svg PUBLIC "-//W3C//DTD SVG 1.1//EN" "http://www.w3.org/Graphics/SVG/1.1/DTD/svg11.dtd">
<svg version="1.1" id="Ebene_1" xmlns="http://www.w3.org/2000/svg" xmlns:xlink="http://www.w3.org/1999/xlink" x="0px" y="0px"
	 width="35px" height="35px" viewBox="0 0 35 35" enable-background="new 0 0 35 35" xml:space="preserve">
<path fill="#1D1D1B" d="M33.045,17.758c0,8.421-6.828,15.25-15.25,15.25s-15.25-6.828-15.25-15.25c0-8.422,6.828-15.25,15.25-15.25
	S33.045,9.336,33.045,17.758"/>
<path fill="#FFFFFF" d="M17.845,6.581c-5.944,0-10.782,3.29-10.782,7.334c0,0.706,0.078,0.961,0.111,1.064l0.039,0.181h1.261v-0.238
	l0.863,11.526c0,0.19,0.156,0.348,0.349,0.348h16.423c0.191,0,0.348-0.157,0.348-0.348l0.797-11.295h1.228l0.039-0.183
	c0.072-0.347,0.109-0.702,0.109-1.055C28.629,9.871,23.791,6.581,17.845,6.581 M11.539,22.461c-0.172,0-0.252-0.066-0.371-0.12
	c-0.119-0.052-0.251-0.291-0.331-0.463c-0.079-0.172-0.132-0.755-0.132-0.94c0-0.185-0.031-0.652,0.013-0.899
	c0.066-0.371,0.187-0.795,0.239-0.953c0.052-0.159,0.304-0.558,0.503-0.755c0.143-0.143,0.345-0.27,0.503-0.346l-0.404,2.995
	c-0.03,0.049-0.061,0.099-0.086,0.145c-0.172,0.318-0.212,0.636-0.212,0.755s0.106,0.172,0.252,0.212s0.385-0.105,0.385-0.105
	l-0.015,0.211l0.133,0.16C12.016,22.355,11.711,22.461,11.539,22.461 M12.002,20.395c0,0-0.091,0.106-0.204,0.252l0.498-2.765
	c0.114-0.021,0.249-0.041,0.362-0.054l-0.243,3.826L12.002,20.395z M12.837,22.938l-0.183-0.557l0.334-4.569
	c0.148-0.001,0.367-0.004,0.577-0.004l-0.394,5.129H12.837z M14.309,21.627h-0.32v1.311h-0.485l0.38-5.127
	c0.043,0.001,0.084,0.002,0.119,0.003c0.077,0.004,0.194,0.016,0.328,0.033L14.309,21.627z M14.902,21.627h-0.329l0.021-3.743
	c0.108,0.017,0.217,0.034,0.32,0.053L14.902,21.627z M15.697,22.911h-0.385l-0.148-0.464l0.133-4.432
	c0.056,0.013,0.104,0.026,0.135,0.037c0.097,0.034,0.261,0.093,0.437,0.168L15.697,22.911z M17.96,21.098l-0.026,0.078h-0.053
	l-0.053-0.105l-0.027,0.119l-0.079,0.026l-0.079-0.106l-0.014,0.173h-0.065l-0.054-0.159l-0.04,0.146l-0.079,0.026l-0.039-0.12
	l-0.039,0.159l-0.067-0.026c0,0,0,0.092-0.039,0.106c-0.04,0.013-0.172,0-0.172,0l-0.133,0.079l-0.066-0.212l-0.053,0.212
	l-0.079-0.053v0.146L16.636,21.6L16.544,21.4l-0.105,1.511h-0.438l0.208-4.525c0.115,0.064,0.221,0.133,0.295,0.209
	c0.252,0.25,0.278,0.489,0.397,0.887c0.119,0.396,0.305,0.847,0.305,0.847l0.543-0.238c0,0,0.092,0.066,0.119,0.146
	c0.026,0.08,0.053,0.291,0.053,0.291l0.226,0.57H17.96z M19.724,20.102l0.384-0.844c0,0,0.307,0.729,0.345,0.958
	s0.038,0.575-0.383,0.536C19.647,20.714,19.724,20.102,19.724,20.102 M20.605,24.126c-0.422-0.039-0.346-0.651-0.346-0.651
	l0.385-0.844c0,0,0.306,0.729,0.345,0.958C21.027,23.818,21.027,24.164,20.605,24.126 M21.87,22.669
	c-0.421-0.038-0.345-0.651-0.345-0.651l0.383-0.844c0,0,0.307,0.729,0.345,0.958C22.292,22.361,22.292,22.707,21.87,22.669
	 M28.104,14.693h-0.752l0.332-0.633c0-0.191-0.156-0.348-0.348-0.348h-0.938c0.01,0.594,0.032,1.951,0.032,2.249
	c0,0.383-0.152,0.422-0.421,0.422s-0.269-0.307-0.269-0.575s0.154-0.728-0.344-0.728c-0.499,0-0.346,0.613-0.346,0.613
	s-0.04,2.76-0.039,3.143s-0.19,0.689-0.46,0.689c-0.268,0-0.268-0.268-0.268-0.612s-0.038-0.805-0.038-1.342
	c0-0.537-0.269-0.575-0.537-0.537c-0.268,0.039-0.115,0.844-0.115,1.342s0,0.46-0.077,0.767c-0.075,0.307-0.075,0.651-0.345,0.651
	c-0.268,0-0.229-0.421-0.268-0.612c-0.038-0.192-0.038-0.23-0.038-0.537s-0.039-0.421-0.422-0.383
	c-0.383,0.038-0.23,0.344-0.23,0.537c0,0.191,0.038,0.843,0.038,1.073s-0.229,0.537-0.46,0.537c-0.229,0-0.421-0.46-0.421-0.805
	v-2.339c0-0.69,0.038-2.568-0.422-2.529c-0.46,0.038-0.46,0.46-0.46,0.46s0.039,2.376,0.039,2.683c0,0.306-0.154,0.728-0.499,0.69
	c-0.345-0.039-0.383-0.537-0.383-0.768v-2.108c0-0.499-0.308-0.038-0.308,0.345c0,0.383,0,0.996-0.345,0.958S18.689,16,18.689,16
	v-2.288H8.457c-0.191,0-0.347,0.157-0.347,0.348l0.294,0.64H7.577c-0.026-0.132-0.055-0.367-0.055-0.785
	c0-3.79,4.631-6.874,10.322-6.874c5.693,0,10.324,3.084,10.324,6.874C28.169,14.175,28.147,14.435,28.104,14.693"/>
<path fill="#1D1D1B" d="M16.623,19.602l-0.013,0.913l0.344-0.12c0,0-0.093-0.41-0.146-0.568
	C16.755,19.667,16.623,19.602,16.623,19.602"/>
<path fill="#FFFFFF" d="M27.478,13.584H8.315c-0.113,0-0.206-0.093-0.206-0.206v-0.08c0-0.114,0.093-0.207,0.206-0.207h19.162
	c0.113,0,0.206,0.093,0.206,0.207v0.08C27.684,13.492,27.591,13.584,27.478,13.584"/>
</svg>
