<?xml version="1.0" encoding="utf-8"?>
<!-- Generator: Adobe Illustrator 15.1.0, SVG Export Plug-In . SVG Version: 6.00 Build 0)  -->
<!DOCTYPE svg PUBLIC "-//W3C//DTD SVG 1.1//EN" "http://www.w3.org/Graphics/SVG/1.1/DTD/svg11.dtd">
<svg version="1.1" id="Ebene_1" xmlns="http://www.w3.org/2000/svg" xmlns:xlink="http://www.w3.org/1999/xlink" x="0px" y="0px"
	 width="22.888px" height="40px" viewBox="0 0 22.888 40" enable-background="new 0 0 22.888 40" xml:space="preserve">
<rect x="-47" y="-33.5" display="none" width="131" height="126"/>
<image display="none" overflow="visible" enable-background="new    " width="36" height="62" xlink:href="F0C3EA68.png"  transform="matrix(1 0 0 1 4.882813e-004 0.5)">
</image>
<image display="none" overflow="visible" enable-background="new    " width="36" height="62" xlink:href="F0C3EA69.png"  transform="matrix(1 0 0 1 4.882813e-004 0.5)">
</image>
<path fill="#990066" d="M0,20c0-0.005,0.002-0.012,0.002-0.017c0.004-0.714,0.278-1.426,0.821-1.971l0.076-0.075l0,0l0,0
	L18.012,0.823c1.099-1.098,2.879-1.098,3.978,0.001l0.074,0.075c1.099,1.098,1.099,2.879,0.001,3.978L6.94,20l15.124,15.124
	c1.098,1.099,1.098,2.879-0.001,3.978l-0.074,0.074c-1.099,1.1-2.88,1.1-3.978,0.002L0.823,21.989
	c-0.543-0.545-0.817-1.259-0.821-1.972C0.002,20.012,0,20.006,0,20z"/>
</svg>
