<?xml version="1.0" encoding="utf-8"?>
<!-- Generator: Adobe Illustrator 15.1.0, SVG Export Plug-In . SVG Version: 6.00 Build 0)  -->
<!DOCTYPE svg PUBLIC "-//W3C//DTD SVG 1.1//EN" "http://www.w3.org/Graphics/SVG/1.1/DTD/svg11.dtd">
<svg version="1.1" id="Ebene_1" xmlns="http://www.w3.org/2000/svg" xmlns:xlink="http://www.w3.org/1999/xlink" x="0px" y="0px"
	 width="22.888px" height="40px" viewBox="0 0 22.888 40" enable-background="new 0 0 22.888 40" xml:space="preserve">
<rect x="-47" y="-33.5" display="none" width="131" height="126"/>
<image display="none" overflow="visible" enable-background="new    " width="36" height="62" xlink:href="D3F95C6B.png"  transform="matrix(1 0 0 1 4.882813e-004 0.5)">
</image>
<image display="none" overflow="visible" enable-background="new    " width="36" height="62" xlink:href="D3F95C6E.png"  transform="matrix(1 0 0 1 4.882813e-004 0.5)">
</image>
<path fill="#990066" d="M22.888,20c0-0.005-0.002-0.012-0.002-0.017c-0.004-0.714-0.278-1.426-0.821-1.971l-0.075-0.075l0,0l0,0
	L4.876,0.823C3.778-0.274,1.998-0.274,0.899,0.824L0.824,0.899c-1.099,1.098-1.099,2.879-0.001,3.978L15.947,20L0.823,35.123
	c-1.098,1.099-1.098,2.879,0.001,3.978l0.075,0.074c1.099,1.1,2.879,1.1,3.978,0.002l17.188-17.188
	c0.544-0.545,0.817-1.259,0.821-1.972C22.887,20.012,22.888,20.006,22.888,20z"/>
</svg>
