<svg id="CAPAROL_Logo_4c_negativ" data-name="CAPAROL Logo 4c negativ" xmlns="http://www.w3.org/2000/svg" width="12.23cm" height="8.49cm" viewBox="0 0 346.66 240.61"><path d="M348.73,319.25H291.35L272.17,259.5a118.7,118.7,0,0,1-19.38,1.41,116.12,116.12,0,0,1-13.69-1l-4.38,59.36H177.6l-.11-.35-36.12-114c-8,11.57-29.72,43.23-29.72,59.41,0,3.91,1,10.48,8,10.48,6.84,0,12.58-3,16.38-5l5.35-2.82L140,281.11l10.56,9.61-4.55,2c-1.95.87-12.1,5.18-20.69,5.18-14,0-23.88-4.12-30.08-12.61-11.12-15.19-15.09-44.25-15.09-66.38,0-45,8.13-77.86,25.58-103.33,22.31-32.76,59.92-37,90.19-37,61.92,0,98.84,9.63,126.8,19,17.35,5.86,28,15.16,35.72,31.08,5.84,12,19.75,55.9,22,63l28.33-9.53,18.07,51.44-74,25.7Zm9.75-142.68-1.61,22.69,7.81-2.36Z" transform="translate(-80.14 -78.64)"/></svg>