<?xml version="1.0" encoding="utf-8"?>
<!-- Generator: Adobe Illustrator 15.1.0, SVG Export Plug-In . SVG Version: 6.00 Build 0)  -->
<!DOCTYPE svg PUBLIC "-//W3C//DTD SVG 1.1//EN" "http://www.w3.org/Graphics/SVG/1.1/DTD/svg11.dtd">
<svg version="1.1" id="Ebene_1" xmlns="http://www.w3.org/2000/svg" xmlns:xlink="http://www.w3.org/1999/xlink" x="0px" y="0px"
	 width="69px" height="69px" viewBox="0 0 69 69" enable-background="new 0 0 69 69" xml:space="preserve">
<g>
	<path fill="#990066" d="M41.167,27H33v-8.167C33,17.269,31.731,16,30.167,16h-0.334C28.269,16,27,17.269,27,18.833V27h-8.167
		C17.269,27,16,28.269,16,29.833v0.334C16,31.731,17.269,33,18.833,33H27v8.167C27,42.73,28.269,44,29.833,44h0.334
		C31.731,44,33,42.73,33,41.167V33h8.167C42.73,33,44,31.731,44,30.167v-0.334C44,28.269,42.73,27,41.167,27z"/>
	<path fill="#990066" d="M66.285,59.714l-11.76-11.76c3.545-4.879,5.643-10.878,5.643-17.371C60.168,14.245,46.923,1,30.585,1
		S1.001,14.245,1.001,30.583s13.245,29.583,29.583,29.583c6.234,0,12.016-1.934,16.784-5.227l11.845,11.845
		c1.889,1.888,4.948,1.888,6.836-0.001l0.234-0.234C68.173,64.662,68.173,61.602,66.285,59.714z M30.585,52.167
		c-11.92,0-21.583-9.663-21.583-21.583C9.001,18.664,18.665,9,30.585,9s21.583,9.663,21.583,21.583
		C52.168,42.504,42.505,52.167,30.585,52.167z"/>
</g>
</svg>
