<?xml version="1.0" encoding="UTF-8"?>
<svg xmlns="http://www.w3.org/2000/svg" xmlns:xlink="http://www.w3.org/1999/xlink" class="tattoo" version="1.1" id="Ebene_1" x="0px" y="0px" viewBox="0 0 513.04 356.09" style="enable-background:new 0 0 513.04 356.09;" xml:space="preserve">
                  <path d="M382.16,138.26l-2.34,32.98l11.35-3.42L382.16,138.26z M395.01,352.97h-83.42l-27.9-86.87c-9.67,1.78-21.75,2.05-28.18,2.05                      c-7.39,0-15.9-0.96-19.9-1.48l-6.37,86.3H146.2l-0.16-0.51l-52.52-165.8c-11.66,16.82-43.21,62.86-43.21,86.38                      c0,5.69,1.52,15.23,11.67,15.23c9.95,0,18.3-4.39,23.82-7.3l7.78-4.09l-2.06,20.64l15.36,13.96l-6.62,2.94                      c-2.83,1.26-17.6,7.54-30.08,7.54c-20.43,0-34.73-6-43.74-18.34C10.27,281.53,4.51,239.27,4.51,207.1                      c0-65.47,11.82-113.21,37.18-150.23C74.13,9.24,128.81,3.13,172.83,3.13c90.02,0,143.7,14,184.35,27.69                      c25.22,8.53,40.75,22.04,51.93,45.19c8.5,17.44,28.72,81.27,31.96,91.56l41.19-13.85l26.28,74.79l-107.54,37.37L395.01,352.97z"></path>
               </svg>
