<?xml version="1.0" encoding="UTF-8"?>
<svg xmlns="http://www.w3.org/2000/svg" width="148mm" height="148mm" viewBox="0 0 419.53 419.53">
  <g id="Ebene_2" data-name="Ebene 2">
    <g id="Frames">
      <path d="M419.53,209.76c0,115.85-93.92,209.77-209.77,209.77S0,325.61,0,209.76,93.91,0,209.76,0,419.53,93.91,419.53,209.76" style="fill:#c14d52"></path>
    </g>
    <g id="ICONS">
      <path id="Effizienz" d="M97.94,179.3a4.19,4.19,0,0,1-2.65-7.43L207.1,80.71a4.17,4.17,0,0,1,5.29,0l111.82,91.15a4.19,4.19,0,1,1-5.29,6.49l-109.17-89-109.17,89A4.14,4.14,0,0,1,97.94,179.3ZM209.75,101l-93,75.82v66.11h32.29c39.2,0,54.8-15.61,83.12-43.95l2-2c9.3-9.3,14.57-14.58,17.56-17.56H231.77a4.19,4.19,0,1,1,0-8.38h29.66a4.2,4.2,0,0,1,4.19,4.19V204.9a4.19,4.19,0,1,1-8.38,0V185.71c-3.05,3.06-8.26,8.28-17.19,17.2l-2,2c-28.92,28.94-46.37,46.4-89,46.4H116.76v19.88h32.29c41.65,0,66.37-3.26,102.75-22.6l5.79-3L245,242.13a4.19,4.19,0,0,1,2.18-8.09l22.53,6.08a4.19,4.19,0,0,1,2.95,5.14l-6.08,22.53a4.18,4.18,0,1,1-8.08-2.18l3.48-12.9L255.7,256c-37.69,20-64.42,23.57-106.65,23.57H116.76v21.37h186V176.8ZM110.28,271.16H68.09a4.19,4.19,0,0,0,0,8.38h42.19ZM63.91,247.1a4.18,4.18,0,0,0,4.18,4.18h42.18v-8.37H68.09A4.19,4.19,0,0,0,63.91,247.1Z" style="fill:#fff"></path>
    </g>
  </g>
</svg>
