<?xml version="1.0" encoding="UTF-8"?>
<svg xmlns="http://www.w3.org/2000/svg" width="148mm" height="148mm" viewBox="0 0 419.53 419.53">
  <g id="Ebene_2" data-name="Ebene 2">
    <g id="Frames">
      <path d="M419.53,209.77c0,115.85-93.92,209.76-209.77,209.76S0,325.62,0,209.77,93.91,0,209.76,0,419.53,93.92,419.53,209.77" style="fill:#85827a"></path>
    </g>
    <g id="ICONS">
      <path id="Design" d="M259,300.91H121a4.19,4.19,0,0,1-4.19-4.19V178.79a4.22,4.22,0,0,1,1.54-3.25l88.8-72.41a4.21,4.21,0,0,1,5.3,0l50.26,41a4.19,4.19,0,1,1-5.29,6.49l-47.62-38.83-84.61,69V292.54H259a4.19,4.19,0,1,1,0,8.37ZM100.58,178.36l109.17-89,109.17,89a4.19,4.19,0,1,0,5.29-6.49L212.39,80.71a4.17,4.17,0,0,0-5.29,0L95.29,171.87a4.19,4.19,0,0,0,5.29,6.49Zm281.75,115.9-39.1,23.91L279.36,213.7,268,158.9a4.48,4.48,0,0,1,2-4.79,4.38,4.38,0,0,1,2.33-.66,4.51,4.51,0,0,1,2.87,1l43.26,35.31Zm-95.28-84.67,24.26-14.83L287.07,175l-6.4,3.91Zm80.26,77.75L318,206.71a4.18,4.18,0,1,0-7.14,4.36l49.29,80.64a4.2,4.2,0,0,0,3.58,2,4.13,4.13,0,0,0,2.18-.62A4.19,4.19,0,0,0,367.31,287.34Z" style="fill:#fff"></path>
    </g>
  </g>
</svg>
