<?xml version="1.0" encoding="UTF-8"?>
<svg xmlns="http://www.w3.org/2000/svg" width="148mm" height="148mm" viewBox="0 0 419.53 419.53">
  <g id="Ebene_2" data-name="Ebene 2">
    <g id="Frames">
      <path d="M419.53,209.77c0,115.85-93.92,209.76-209.77,209.76S0,325.62,0,209.77,93.91,0,209.76,0,419.53,93.92,419.53,209.77" style="fill:#9fc9d6"></path>
    </g>
    <g id="ICONS">
      <path id="Gesundheit" d="M97.94,179.3a4.19,4.19,0,0,1-2.65-7.43L207.1,80.71a4.17,4.17,0,0,1,5.29,0l111.82,91.15a4.19,4.19,0,1,1-5.29,6.49l-109.17-89-109.17,89A4.19,4.19,0,0,1,97.94,179.3ZM210.62,286.18l-48.07-48.06H116.76v62.79h186V238.12H258.68Zm153.22-60.57a4.18,4.18,0,0,1-4.18,4.18H243.78l-16-24.26-30.91,39-14.33-14.71H59.85a4.19,4.19,0,1,1,0-8.37h56.91V176.8l93-75.82,93,75.82v44.62h56.92A4.19,4.19,0,0,1,363.84,225.61Zm-115.55-4.19h25a36.25,36.25,0,0,0-57.4-43.1l-5.32,5.33-5.33-5.33a36.25,36.25,0,0,0-57.4,43.1h38.16l10.15,10.42,32.17-40.57Z" style="fill:#fff"></path>
    </g>
  </g>
</svg>
