<?xml version="1.0" encoding="UTF-8"?>
<svg xmlns="http://www.w3.org/2000/svg" width="148mm" height="148mm" viewBox="0 0 419.53 419.53">
  <g id="Ebene_2" data-name="Ebene 2">
    <g id="Frames">
      <path d="M419.53,209.76c0,115.85-93.92,209.77-209.77,209.77S0,325.61,0,209.76,93.91,0,209.76,0,419.53,93.91,419.53,209.76" style="fill:#87b881"></path>
    </g>
    <g id="ICONS">
      <path id="Umweltfreundliche_Materialien" data-name="Umweltfreundliche Materialien" d="M97.94,144.24a4.19,4.19,0,0,1-2.65-7.43L207.11,45.65a4.17,4.17,0,0,1,5.29,0L324.22,136.8a4.19,4.19,0,1,1-5.29,6.49l-109.18-89-109.17,89A4.17,4.17,0,0,1,97.94,144.24ZM304.8,295.6H237.08A23.14,23.14,0,0,1,214,272.48h-8.38a23.14,23.14,0,0,1-23.12,23.12H114.76a4.19,4.19,0,0,0,0,8.37h47.29a31.43,31.43,0,0,0-9.87,19.15H129.44a4.19,4.19,0,1,0,0,8.37h22.49v15.93a4.19,4.19,0,1,0,8.37,0V327.07A23.15,23.15,0,0,1,183.42,304h.09c1,0,2-.11,2.92-.23v9.88a48.15,48.15,0,0,0,3.48,18,34.15,34.15,0,0,0-16.37,29.14,4.19,4.19,0,0,0,8.37,0,25.76,25.76,0,0,1,11.8-21.64,48.33,48.33,0,0,0,41,22.83,4.19,4.19,0,0,0,0-8.37,39.92,39.92,0,0,1-33.24-17.84,25.84,25.84,0,0,1,6.19-.75h28.25a4.19,4.19,0,0,0,0-8.38H207.68a34,34,0,0,0-10.14,1.54,39.67,39.67,0,0,1-2.73-14.49V301.45a31.74,31.74,0,0,0,15-13.31,31.52,31.52,0,0,0,23.5,15.59,4.45,4.45,0,0,0,.9.15A23,23,0,0,1,256.28,327v11.94a4.19,4.19,0,0,0,8.38,0V327a31.4,31.4,0,0,0-10-23h15a26.1,26.1,0,0,0,25.95,23.64,4.19,4.19,0,1,0,0-8.37A17.71,17.71,0,0,1,278.19,304H304.8a4.19,4.19,0,0,0,0-8.37Zm-2.06-153.86V265.85H213.87a2.77,2.77,0,0,0,0-.3V244.18l14.24-14.24h31.19a29.75,29.75,0,0,0,29.76-29.75v-15.1H267.63a43.88,43.88,0,0,0-43.3,36.83L213.9,232.34v-3.2h0s0,0,0,0V177a4.19,4.19,0,0,0-8.37,0v36.88a18,18,0,0,0-9.67-2.83h-.73a43.89,43.89,0,0,0-43.25-36.52H130.42v15.1a29.75,29.75,0,0,0,29.76,29.76h21.7v0h14a9.68,9.68,0,0,1,9.67,9.63v36.46a2.77,2.77,0,0,0,0,.3H116.77V141.74l93-75.82Zm-80.93-23.31L210,106.59l-11.84,11.84a27.21,27.21,0,0,0,0,38.49L210,168.76l11.84-11.84A27.21,27.21,0,0,0,221.81,118.43Z" style="fill:#fff"></path>
    </g>
  </g>
</svg>
